<svg width="482" height="482" viewBox="0 0 482 482" fill="none" xmlns="http://www.w3.org/2000/svg">
<g opacity="0.9" filter="url(#filter0_d_1_60)">
<rect x="84" y="81" width="314" height="314" rx="20" fill="white"/>
</g>
<rect x="258" y="246" width="104" height="104" rx="14" fill="#FFEFE6"/>
<rect x="274" y="261" width="74" height="74" rx="14" fill="#FF7527"/>
<path d="M304.084 303.724H300.61C299.97 303.724 299.452 303.205 299.452 302.566V293.303C299.452 292.664 299.97 292.145 300.61 292.145H304.084C304.724 292.145 305.242 292.664 305.242 293.303V302.566C305.242 303.205 304.724 303.724 304.084 303.724ZM312.189 303.724H308.715C308.075 303.724 307.558 303.205 307.558 302.566V282.882C307.558 282.242 308.075 281.724 308.715 281.724H312.189C312.829 281.724 313.347 282.242 313.347 282.882V302.566C313.347 303.205 312.829 303.724 312.189 303.724ZM320.294 303.724H316.821C316.18 303.724 315.663 303.205 315.663 302.566V289.829C315.663 289.19 316.18 288.671 316.821 288.671H320.294C320.935 288.671 321.452 289.19 321.452 289.829V302.566C321.452 303.205 320.935 303.724 320.294 303.724Z" fill="white"/>
<rect x="124" y="246" width="104" height="104" rx="14" fill="#DBEEFF"/>
<rect x="139" y="261" width="74" height="74" rx="14" fill="#0085FF"/>
<rect x="258" y="124" width="104" height="104" rx="14" fill="#DEFFE5"/>
<rect x="272.867" y="139" width="74" height="74" rx="14" fill="#198B39"/>
<rect x="123" y="124" width="104" height="104" rx="14" fill="#FFF6D5"/>
<rect x="137.867" y="139" width="74" height="74" rx="14" fill="#FFC90C"/>
<path d="M183.298 170.323H179.998V168.112C179.998 166.893 179.012 165.902 177.798 165.902H171.198C169.985 165.902 168.998 166.893 168.998 168.112V170.323H165.698C164.485 170.323 163.498 171.314 163.498 172.533V175.849H185.498V172.533C185.498 171.314 184.512 170.323 183.298 170.323ZM171.198 168.112H177.798V170.323H171.198V168.112ZM176.698 179.165H172.298V176.954H163.498V184.691C163.498 185.91 164.485 186.902 165.698 186.902H183.298C184.512 186.902 185.498 185.91 185.498 184.691V176.954H176.698V179.165Z" fill="white"/>
<path d="M184 292C184 289.832 180.337 288 176 288C171.663 288 168 289.832 168 292V294C168 296.168 171.663 298 176 298C180.337 298 184 296.168 184 294V292ZM176 305C171.663 305 168 303.168 168 301V304C168 306.168 171.663 308 176 308C180.337 308 184 306.168 184 304V301C184 303.168 180.337 305 176 305Z" fill="white"/>
<path d="M184 296C184 298.168 180.337 300 176 300C171.663 300 168 298.168 168 296V299C168 301.168 171.663 303 176 303C180.337 303 184 301.168 184 299V296Z" fill="white"/>
<path d="M320.222 188C321.754 188 323 186.754 323 185.222V165.778C323 164.246 321.754 163 320.222 163H300.778C299.246 163 298 164.246 298 165.778V185.222C298 186.754 299.246 188 300.778 188H320.222ZM307.101 172.247L312.657 175.025L314.814 170.713L317.299 171.956L313.9 178.754L308.344 175.976L306.188 180.289L303.703 179.046L307.101 172.247Z" fill="white"/>
<defs>
<filter id="filter0_d_1_60" x="0" y="0" width="482" height="482" filterUnits="userSpaceOnUse" color-interpolation-filters="sRGB">
<feFlood flood-opacity="0" result="BackgroundImageFix"/>
<feColorMatrix in="SourceAlpha" type="matrix" values="0 0 0 0 0 0 0 0 0 0 0 0 0 0 0 0 0 0 127 0" result="hardAlpha"/>
<feOffset dy="3"/>
<feGaussianBlur stdDeviation="42"/>
<feColorMatrix type="matrix" values="0 0 0 0 0.555156 0 0 0 0 0.779167 0 0 0 0 0.754277 0 0 0 0.3 0"/>
<feBlend mode="normal" in2="BackgroundImageFix" result="effect1_dropShadow_1_60"/>
<feBlend mode="normal" in="SourceGraphic" in2="effect1_dropShadow_1_60" result="shape"/>
</filter>
</defs>
</svg>
